HIERARCHY
ROOT Hips
{
	OFFSET 0.00000 0.00000 0.00000
	CHANNELS 6 Xposition Yposition Zposition Zrotation Yrotation Xrotation 
	JOINT LHipJoint
	{
		OFFSET 0 0 0
		CHANNELS 3 Zrotation Yrotation Xrotation
		JOINT LeftUpLeg
		{
			OFFSET 1.75344 -1.53157 0.77399
			CHANNELS 3 Zrotation Yrotation Xrotation
			JOINT LeftLeg
			{
				OFFSET 2.25415 -6.19323 0.00000
				CHANNELS 3 Zrotation Yrotation Xrotation
				JOINT LeftFoot
				{
					OFFSET 2.30342 -6.32861 0.00000
					CHANNELS 3 Zrotation Yrotation Xrotation
					JOINT LeftToeBase
					{
						OFFSET 0.10958 -0.30108 1.49206
						CHANNELS 3 Zrotation Yrotation Xrotation
						End Site
						{
							OFFSET 0.00000 -0.00000 0.77783
						}
					}
				}
			}
		}
	}
	JOINT RHipJoint
	{
		OFFSET 0 0 0
		CHANNELS 3 Zrotation Yrotation Xrotation
		JOINT RightUpLeg
		{
			OFFSET -1.81912 -1.53156 0.77399
			CHANNELS 3 Zrotation Yrotation Xrotation
			JOINT RightLeg
			{
				OFFSET -2.22882 -6.12365 0.00000
				CHANNELS 3 Zrotation Yrotation Xrotation
				JOINT RightFoot
				{
					OFFSET -2.21943 -6.09785 0.00000
					CHANNELS 3 Zrotation Yrotation Xrotation
					JOINT RightToeBase
					{
						OFFSET -0.18931 -0.52012 1.59379
						CHANNELS 3 Zrotation Yrotation Xrotation
						End Site
						{
							OFFSET -0.00000 -0.00000 0.84686
						}
					}
				}
			}
		}
	}
	JOINT LowerBack
	{
		OFFSET 0 0 0
		CHANNELS 3 Zrotation Yrotation Xrotation
		JOINT Spine
		{
			OFFSET -0.00200 1.66634 -0.14248
			CHANNELS 3 Zrotation Yrotation Xrotation
			JOINT Spine1
			{
				OFFSET -0.00875 1.64542 0.09514
				CHANNELS 3 Zrotation Yrotation Xrotation
				JOINT Neck
				{
					OFFSET 0 0 0
					CHANNELS 3 Zrotation Yrotation Xrotation
					JOINT Neck1
					{
						OFFSET 0.02257 1.59605 0.00839
						CHANNELS 3 Zrotation Yrotation Xrotation
						JOINT Head
						{
							OFFSET -0.10214 1.57530 -0.23335
							CHANNELS 3 Zrotation Yrotation Xrotation
							End Site
							{
								OFFSET -0.03588 1.60717 -0.08062
							}
						}
					}
				}
				JOINT LeftShoulder
				{
					OFFSET 0 0 0
					CHANNELS 3 Zrotation Yrotation Xrotation
					JOINT LeftArm
					{
						OFFSET 2.54983 1.10186 0.40078
						CHANNELS 3 Zrotation Yrotation Xrotation
						JOINT LeftForeArm
						{
							OFFSET 4.28840 -0.00000 0.00000
							CHANNELS 3 Zrotation Yrotation Xrotation
							JOINT LeftHand
							{
								OFFSET 3.06552 -0.00000 -0.00000
								CHANNELS 3 Zrotation Yrotation Xrotation
								JOINT LeftFingerBase
								{
									OFFSET 0 0 0
									CHANNELS 3 Zrotation Yrotation Xrotation
									JOINT LeftHandIndex1
									{
										OFFSET 0.75304 -0.00000 0.00000
										CHANNELS 3 Zrotation Yrotation Xrotation
										End Site
										{
											OFFSET 0.60712 -0.00000 0.00000
										}
									}
								}
								JOINT LThumb
								{
									OFFSET 0 0 0
									CHANNELS 3 Zrotation Yrotation Xrotation
									End Site
									{
										OFFSET 0.61639 -0.00000 0.61639
									}
								}
							}
						}
					}
				}
				JOINT RightShoulder
				{
					OFFSET 0 0 0
					CHANNELS 3 Zrotation Yrotation Xrotation
					JOINT RightArm
					{
						OFFSET -2.60909 1.35448 0.21802
						CHANNELS 3 Zrotation Yrotation Xrotation
						JOINT RightForeArm
						{
							OFFSET -4.52172 -0.00000 -0.00000
							CHANNELS 3 Zrotation Yrotation Xrotation
							JOINT RightHand
							{
								OFFSET -2.89140 -0.00000 0.00000
								CHANNELS 3 Zrotation Yrotation Xrotation
								JOINT RightFingerBase
								{
									OFFSET 0 0 0
									CHANNELS 3 Zrotation Yrotation Xrotation
									JOINT RightHandIndex1
									{
										OFFSET -0.68054 -0.00000 0.00000
										CHANNELS 3 Zrotation Yrotation Xrotation
										End Site
										{
											OFFSET -0.54867 -0.00000 0.00000
										}
									}
								}
								JOINT RThumb
								{
									OFFSET 0 0 0
									CHANNELS 3 Zrotation Yrotation Xrotation
									End Site
									{
										OFFSET -0.55705 -0.00000 0.55705
									}
								}
							}
						}
					}
				}
			}
		}
	}
}
MOTION
Frames: 5
Frame Time: .0083333
7.6343 15.3101 -36.6953 -177.3490 -22.1845 180.8910 0.0000 0.0000 0.0000 -26.9725 -16.1398 -4.1173 2.9092 10.5466 30.7657 2.2555 7.9574 -32.0937 0.2358 3.1252 8.6275 0.0000 0.0000 0.0000 20.7932 5.8133 -4.1828 -3.1189 -10.8851 31.8933 -0.4279 -24.2508 -36.5108 -0.0365 -1.2329 3.3897 1.2507 2.6352 4.7997 -1.3139 3.3687 -6.0243 -2.4925 1.4329 -8.8929 0.5455 3.0775 -14.6926 -2.2519 4.3325 18.3621 -0.3663 1.7496 8.1821 0.0000 -0.0000 0.0000 -78.9962 9.2153 36.2309 12.2183 -20.1312 -2.1768 -0.0000 -0.0000 34.3795 -0.8285 -37.9716 0.5098 -7.1250 0.0000 -0.0000 -18.3174 -6.3268 21.2866 0.0000 -0.0000 0.0000 71.5142 10.5037 37.7814 -11.6583 19.2902 -1.9880 0.0000 0.0000 23.5158 -21.5402 -52.0168 17.2818 7.1250 -0.0000 -0.0000 58.5554 -79.2250 -48.8021
7.6051 15.3144 -36.7022 -177.0460 -23.5746 180.8990 0.0000 0.0000 0.0000 -26.8535 -16.9731 -3.7896 2.8530 10.4531 30.4570 2.1439 8.0552 -31.4852 0.1748 2.6934 7.4262 0.0000 0.0000 0.0000 20.9308 5.0043 -5.2296 -3.3865 -11.2959 33.2843 -0.2977 -24.1914 -35.7308 -0.0925 -1.9610 5.3979 1.7663 2.7601 4.9560 -1.2498 3.5954 -6.0960 -2.7512 1.5095 -9.0261 0.1533 3.2297 -14.9216 -1.6433 4.5168 18.7924 -0.0724 1.8614 8.3449 -0.0000 -0.0000 0.0000 -78.7589 11.5772 37.2173 12.2869 -20.2336 -2.2005 -0.0000 -0.0000 33.9604 -0.8566 -38.0836 0.5284 -7.1250 0.0000 -0.0000 -18.3348 -6.4310 21.3388 -0.0000 -0.0000 0.0000 72.5742 8.8652 38.8708 -11.6543 19.2841 -1.9866 0.0000 0.0000 23.7156 -21.7193 -51.9837 17.4231 7.1250 -0.0000 -0.0000 58.3156 -79.2883 -48.6463
7.5764 15.3184 -36.7140 -176.8510 -24.7910 180.9500 0.0000 0.0000 0.0000 -26.8553 -17.7447 -3.4011 2.7876 10.3430 30.0949 2.0924 7.9038 -31.0807 0.2839 3.4267 9.4691 0.0000 0.0000 0.0000 20.9635 4.4007 -6.2916 -3.6938 -11.7414 34.8234 -0.0841 -24.2008 -34.5389 -0.2212 -3.0279 8.3564 2.0560 2.9755 4.9064 -1.1483 3.9260 -6.0699 -2.8406 1.6607 -8.9378 2.1998 3.5219 -13.3821 -3.9007 4.8872 17.3716 -1.1422 1.9955 7.7151 -0.0000 0.0000 0.0000 -78.4687 13.9168 38.2984 12.4545 -20.4828 -2.2588 -0.0000 -0.0000 33.5358 -1.2062 -37.9707 0.7422 -7.1250 0.0000 -0.0000 -18.5078 -6.2961 21.5232 -0.0000 0.0000 0.0000 73.4726 7.4693 40.1619 -11.6760 19.3169 -1.9938 0.0000 0.0000 23.9899 -21.2261 -52.1192 17.0434 7.1250 -0.0000 -0.0000 59.1944 -79.1292 -49.2880
7.5462 15.3245 -36.7261 -176.8970 -25.9098 180.9820 0.0000 0.0000 0.0000 -27.1613 -18.4572 -2.8079 2.7139 10.2168 29.6818 2.0455 8.0094 -30.8561 0.2840 3.4273 9.4709 0.0000 0.0000 0.0000 20.7510 3.9263 -7.2538 -4.0474 -12.2233 36.5264 0.0132 -24.2866 -34.0865 -0.3868 -3.9939 11.0594 2.1715 3.2695 4.9260 -1.0939 4.3466 -5.9843 -2.8944 1.8688 -8.8268 0.0956 3.6098 -14.8496 -1.6020 5.0552 18.8452 0.0126 2.1181 8.3521 -0.0000 -0.0000 0.0000 -78.2525 16.0574 38.8058 12.5377 -20.6061 -2.2880 -0.0000 -0.0000 33.5322 -1.8121 -37.6966 1.1083 -7.1250 0.0000 -0.0000 -18.8064 -5.9898 21.8196 -0.0000 -0.0000 0.0000 74.2302 6.1792 41.6022 -11.7400 19.4136 -2.0150 0.0000 0.0000 24.3353 -19.8569 -52.4069 15.9688 7.1250 -0.0000 -0.0000 61.1272 -78.6581 -50.5782
7.5243 15.3307 -36.7489 -177.2610 -26.9664 181.2290 0.0000 0.0000 0.0000 -27.6535 -19.0430 -2.3072 2.6176 10.0486 29.1342 2.0055 7.8333 -30.5011 0.3086 3.5713 9.8735 0.0000 0.0000 0.0000 20.2580 3.4849 -8.4369 -4.4561 -12.7438 38.4169 0.3079 -24.5919 -32.7250 -0.4438 -4.2742 11.8493 1.7586 3.6456 4.8329 -1.0771 4.8190 -5.9275 -2.6931 2.1333 -8.7160 1.4004 3.8446 -13.8873 -3.1400 5.3776 17.9015 -0.6966 2.2362 7.9515 -0.0000 -0.0000 0.0000 -78.1399 17.8858 38.2760 12.4617 -20.4934 -2.2613 -0.0000 -0.0000 34.0566 -1.5960 -38.2003 0.9872 -7.1250 0.0000 -0.0000 -18.7096 -6.4841 21.8392 -0.0000 -0.0000 0.0000 74.9566 4.9130 42.8171 -11.8353 19.5571 -2.0468 0.0000 0.0000 25.2256 -17.9038 -52.3058 14.3398 7.1250 -0.0000 -0.0000 61.4382 -77.8300 -50.0276
